<svg xmlns="http://www.w3.org/2000/svg" xmlns:xlink="http://www.w3.org/1999/xlink" width="500" zoomAndPan="magnify" viewBox="0 0 375 374.999991" height="500" preserveAspectRatio="xMidYMid meet" version="1.0"><path fill="#ab1919" d="M 203.746094 211.847656 C 204.746094 212.910156 204.746094 214.574219 203.746094 215.640625 C 202.679688 216.640625 201.015625 216.640625 199.953125 215.640625 L 192.027344 207.652344 C 189.296875 209.449219 185.96875 210.378906 182.371094 209.914062 C 176.246094 209.050781 171.320312 204.054688 170.519531 197.996094 C 169.390625 188.941406 177.046875 181.285156 186.101562 182.414062 C 192.160156 183.214844 197.15625 188.140625 198.019531 194.265625 C 198.484375 197.863281 197.554688 201.191406 195.757812 203.855469 Z M 175.714844 196.132812 C 175.714844 200.859375 179.511719 204.65625 184.238281 204.65625 C 188.898438 204.65625 192.761719 200.859375 192.761719 196.132812 C 192.761719 191.472656 188.898438 187.609375 184.238281 187.609375 C 179.511719 187.609375 175.714844 191.472656 175.714844 196.132812 Z M 175.714844 196.132812 " fill-opacity="1" fill-rule="nonzero"/></svg>